<svg width="45" height="21" viewBox="0 0 45 21" fill="none" xmlns="http://www.w3.org/2000/svg">
<g clip-path="url(#clip0_701_5411)">
<path d="M0 3.5H18.6667V17.5H0V3.5Z" fill="#012169"/>
<path d="M2.1875 3.5L9.30417 8.77917L16.3917 3.5H18.6667V5.30833L11.6667 10.5292L18.6667 15.7208V17.5H16.3333L9.33333 12.2792L2.3625 17.5H0V15.75L6.97083 10.5583L0 5.36667V3.5H2.1875Z" fill="white"/>
<path d="M12.3667 11.6958L18.6667 16.3333V17.5L10.7625 11.6958H12.3667ZM7 12.2792L7.175 13.3L1.575 17.5H0L7 12.2792ZM18.6667 3.5V3.5875L11.4042 9.07083L11.4625 7.7875L17.2083 3.5H18.6667ZM0 3.5L6.97083 8.63333H5.22083L0 4.725V3.5Z" fill="#C8102E"/>
<path d="M7.02917 3.5V17.5H11.6958V3.5H7.02917ZM0 8.16667V12.8333H18.6667V8.16667H0Z" fill="white"/>
<path d="M0 9.12917V11.9292H18.6667V9.12917H0ZM7.9625 3.5V17.5H10.7625V3.5H7.9625Z" fill="#C8102E"/>
</g>
<path d="M31.819 3.608V4.92H25.435V8.488H31.403V9.752H25.435V13.688H31.899V15H23.931V3.608H31.819ZM33.6482 3.608H35.2962L41.3122 12.856V3.608H42.7682V15H41.0722L35.0882 5.864V15H33.6482V3.608Z" fill="white"/>
<defs>
<clipPath id="clip0_701_5411">
<rect width="18.6667" height="14" fill="white" transform="translate(0 3.5)"/>
</clipPath>
</defs>
</svg>
