<svg width="16" height="16" viewBox="0 0 16 16" fill="none" xmlns="http://www.w3.org/2000/svg">
<g clip-path="url(#clip0_1489_6954)">
<path d="M2 3.5H14V12C14 12.1326 13.9473 12.2598 13.8536 12.3536C13.7598 12.4473 13.6326 12.5 13.5 12.5H2.5C2.36739 12.5 2.24021 12.4473 2.14645 12.3536C2.05268 12.2598 2 12.1326 2 12V3.5Z" stroke="#1A1A1A" stroke-linecap="round" stroke-linejoin="round"/>
<path d="M13.6611 3.13184C13.8646 2.94534 14.1806 2.95886 14.3672 3.16211C14.5537 3.3656 14.5403 3.68154 14.3369 3.86816L9.8291 8L14.1826 11.9902C14.386 12.1767 14.4001 12.4927 14.2139 12.6963C14.0273 12.8997 13.7103 12.9141 13.5068 12.7275L9.08984 8.67773L8.33691 9.36816C8.14575 9.54324 7.85224 9.54334 7.66113 9.36816L6.90723 8.67773L2.49121 12.7275C2.28765 12.9139 1.97168 12.8997 1.78516 12.6963C1.59872 12.4928 1.61211 12.1768 1.81543 11.9902L6.16797 8L1.66113 3.86816C1.45795 3.68158 1.44452 3.36556 1.63086 3.16211C1.81745 2.9588 2.13342 2.94542 2.33691 3.13184L7.99902 8.32129L13.6611 3.13184Z" fill="#1A1A1A"/>
</g>
<defs>
<clipPath id="clip0_1489_6954">
<rect width="16" height="16" fill="white"/>
</clipPath>
</defs>
</svg>
