<svg width="22" height="22" viewBox="0 0 22 22" fill="none" xmlns="http://www.w3.org/2000/svg">
<g clip-path="url(#clip0_1411_5649)">
<path d="M10.625 2.36707C15.3928 2.36707 19.2578 6.23211 19.2578 10.9999C19.2578 15.7676 15.3928 19.6327 10.625 19.6327C5.85724 19.6327 1.99221 15.7676 1.99219 10.9999C1.99219 6.23211 5.85723 2.36707 10.625 2.36707ZM10.625 3.69519C6.59073 3.69519 3.32031 6.96561 3.32031 10.9999C3.32033 14.8102 6.23799 17.9367 9.96094 18.2723V12.9921H7.96875C7.60212 12.9921 7.30488 12.6946 7.30469 12.328C7.30469 11.9613 7.602 11.6639 7.96875 11.6639H9.96094V9.67175C9.96094 8.96732 10.2412 8.29196 10.7393 7.79382C11.2374 7.29568 11.9127 7.0155 12.6172 7.0155H13.9453C14.3121 7.0155 14.6094 7.31281 14.6094 7.67957C14.6093 8.04622 14.312 8.34363 13.9453 8.34363H12.6172C12.2649 8.34363 11.9268 8.48323 11.6777 8.7323C11.4287 8.98136 11.2891 9.31956 11.2891 9.67175V11.6639H13.2812C13.648 11.6639 13.9453 11.9613 13.9453 12.328C13.9451 12.6946 13.6479 12.9921 13.2812 12.9921H11.2891V18.2723C15.012 17.9367 17.9297 14.8102 17.9297 10.9999C17.9297 6.96561 14.6593 3.69519 10.625 3.69519Z" fill="#1A1A1A"/>
</g>
<defs>
<clipPath id="clip0_1411_5649">
<rect width="21.25" height="21.25" fill="white" transform="translate(0 0.374878)"/>
</clipPath>
</defs>
</svg>
