<svg width="45" height="21" viewBox="0 0 45 21" fill="none" xmlns="http://www.w3.org/2000/svg">
<g clip-path="url(#clip0_701_5193)">
<path d="M0 3.5H18.6667V17.5H0V3.5Z" fill="white"/>
<path d="M7.93359 3.5H10.7336V17.5H7.93359V3.5Z" fill="#FF0000"/>
<path d="M0 9.09998H18.6667V11.9H0V9.09998Z" fill="#FF0000"/>
<path fill-rule="evenodd" clip-rule="evenodd" d="M4.28121 14.3823C4.31038 13.8923 4.39788 13.4752 4.39788 13.4752C4.39788 13.4752 4.11204 13.5044 3.96621 13.5044C3.82038 13.5044 3.53454 13.4752 3.53454 13.4752C3.53454 13.4752 3.62204 13.8923 3.65121 14.3852C3.15829 14.356 2.74121 14.2685 2.74121 14.2685C2.74121 14.2685 2.77038 14.4844 2.77038 14.7002C2.77038 14.916 2.74121 15.1319 2.74121 15.1319C2.74121 15.1319 3.15829 15.0444 3.65121 15.0152C3.62204 15.5081 3.53454 15.9252 3.53454 15.9252C3.53454 15.9252 3.75038 15.896 3.96621 15.896C4.18204 15.896 4.39788 15.9252 4.39788 15.9252C4.39788 15.9252 4.31038 15.5081 4.28121 15.0152C4.77413 15.0444 5.19121 15.1319 5.19121 15.1319C5.19121 15.1319 5.16204 14.846 5.16204 14.7002C5.16204 14.5544 5.19121 14.2685 5.19121 14.2685C5.19121 14.2685 4.77413 14.356 4.28413 14.3852L4.28121 14.3823ZM15.0145 5.98228C15.0437 5.49228 15.1312 5.0752 15.1312 5.0752C15.1312 5.0752 14.8454 5.10436 14.6995 5.10436C14.5537 5.10436 14.2679 5.0752 14.2679 5.0752C14.2679 5.0752 14.3554 5.49228 14.3845 5.98228C13.8916 5.95311 13.4745 5.86853 13.4745 5.86853C13.4745 5.86853 13.5037 6.08436 13.5037 6.3002C13.5037 6.51603 13.4745 6.73186 13.4745 6.73186C13.4745 6.73186 13.8916 6.64436 14.3845 6.6152C14.3554 7.10811 14.2679 7.5252 14.2679 7.5252C14.2679 7.5252 14.4837 7.49603 14.6995 7.49603C14.9154 7.49603 15.1312 7.5252 15.1312 7.5252C15.1312 7.5252 15.0437 7.10811 15.0145 6.61811C15.5075 6.64728 15.9245 6.73478 15.9245 6.73478C15.9245 6.73478 15.8954 6.44311 15.8954 6.3002C15.8954 6.15728 15.9245 5.86853 15.9245 5.86853C15.9245 5.86853 15.5075 5.95603 15.0145 5.9852V5.98228ZM4.28121 5.98228C4.31038 5.49228 4.39788 5.0752 4.39788 5.0752C4.39788 5.0752 4.11204 5.10436 3.96621 5.10436C3.82038 5.10436 3.53454 5.0752 3.53454 5.0752C3.53454 5.0752 3.62204 5.49228 3.65121 5.9852C3.15829 5.95603 2.74121 5.86853 2.74121 5.86853C2.74121 5.86853 2.77038 6.08436 2.77038 6.3002C2.77038 6.51603 2.74121 6.73186 2.74121 6.73186C2.74121 6.73186 3.15829 6.64436 3.65121 6.6152C3.62204 7.10811 3.53454 7.5252 3.53454 7.5252C3.53454 7.5252 3.75038 7.49603 3.96621 7.49603C4.18204 7.49603 4.39788 7.5252 4.39788 7.5252C4.39788 7.5252 4.31038 7.10811 4.28121 6.6152C4.77413 6.64436 5.19121 6.73186 5.19121 6.73186C5.19121 6.73186 5.16204 6.44603 5.16204 6.3002C5.16204 6.15436 5.19121 5.86853 5.19121 5.86853C5.19121 5.86853 4.77413 5.95603 4.28413 5.9852L4.28121 5.98228ZM15.0145 14.3823C15.0437 13.8923 15.1312 13.4752 15.1312 13.4752C15.1312 13.4752 14.8454 13.5044 14.6995 13.5044C14.5537 13.5044 14.2679 13.4752 14.2679 13.4752C14.2679 13.4752 14.3554 13.8923 14.3845 14.3852C13.8916 14.356 13.4745 14.2685 13.4745 14.2685C13.4745 14.2685 13.5037 14.4844 13.5037 14.7002C13.5037 14.916 13.4745 15.1319 13.4745 15.1319C13.4745 15.1319 13.8916 15.0444 14.3845 15.0152C14.3554 15.5081 14.2679 15.9252 14.2679 15.9252C14.2679 15.9252 14.4837 15.896 14.6995 15.896C14.9154 15.896 15.1312 15.9252 15.1312 15.9252C15.1312 15.9252 15.0437 15.5081 15.0145 15.0152C15.5075 15.0444 15.9245 15.1319 15.9245 15.1319C15.9245 15.1319 15.8954 14.846 15.8954 14.7002C15.8954 14.5544 15.9245 14.2685 15.9245 14.2685C15.9245 14.2685 15.5075 14.356 15.0145 14.3852V14.3823Z" fill="#FF0000"/>
</g>
<path d="M33.819 8.968L33.803 15.016H32.843L32.459 13.592C31.547 14.712 30.315 15.288 28.779 15.288C27.163 15.288 25.851 14.744 24.859 13.656C23.867 12.568 23.371 11.16 23.371 9.416C23.371 7.672 23.851 6.232 24.843 5.096C25.835 3.944 27.179 3.384 28.907 3.384C29.691 3.384 30.427 3.512 31.115 3.784C31.787 4.056 32.379 4.488 32.859 5.064C33.339 5.64 33.611 6.328 33.675 7.112H32.203C32.075 6.376 31.723 5.768 31.115 5.32C30.507 4.872 29.771 4.632 28.891 4.632C27.659 4.632 26.683 5.064 25.963 5.912C25.227 6.76 24.875 7.912 24.875 9.352C24.875 10.792 25.227 11.928 25.963 12.76C26.683 13.608 27.659 14.024 28.891 14.024C30.043 14.024 30.907 13.688 31.515 12.984C32.123 12.28 32.443 11.352 32.475 10.2H28.827V8.968H33.819ZM43.9596 3.608V4.92H37.5756V8.488H43.5436V9.752H37.5756V13.688H44.0396V15H36.0716V3.608H43.9596Z" fill="white"/>
<defs>
<clipPath id="clip0_701_5193">
<rect width="18.6667" height="14" fill="white" transform="translate(0 3.5)"/>
</clipPath>
</defs>
</svg>
