<svg width="25" height="25" viewBox="0 0 25 25" fill="none" xmlns="http://www.w3.org/2000/svg">
<path d="M17.0205 5C18.3629 5.00151 19.6504 5.53514 20.5996 6.48438C21.4895 7.37431 22.0138 8.56147 22.0771 9.8125L22.084 10.0635C22.0835 12.9934 19.8851 15.7675 17.4229 17.9238C15.002 20.0439 12.5245 21.3948 12.3389 21.4932H12.3379L12.334 21.4961L12.3291 21.4932C12.1434 21.3948 9.66594 20.0439 7.24512 17.9238C4.78289 15.7675 2.58447 12.9934 2.58398 10.0635C2.5855 8.72106 3.11913 7.43361 4.06836 6.48438C5.01739 5.53534 6.30437 5.00174 7.64648 5C9.36325 5 10.8292 5.73492 11.7344 6.94043L12.334 7.73926L12.9336 6.94043C13.8386 5.73514 15.3042 5.00028 17.0205 5Z" stroke="white" stroke-width="1.5"/>
</svg>
