<svg width="21" height="20" viewBox="0 0 21 20" fill="none" xmlns="http://www.w3.org/2000/svg">
<g clip-path="url(#clip0_1411_5656)">
<path d="M14 1.875C16.4162 1.875 18.375 3.83375 18.375 6.25V13.75C18.375 16.1662 16.4162 18.125 14 18.125H6.5C4.08375 18.125 2.125 16.1662 2.125 13.75V6.25C2.125 3.83375 4.08375 1.875 6.5 1.875H14ZM6.5 3.125C4.77411 3.125 3.375 4.52411 3.375 6.25V13.75C3.375 15.4759 4.77411 16.875 6.5 16.875H14C15.7259 16.875 17.125 15.4759 17.125 13.75V6.25C17.125 4.52411 15.7259 3.125 14 3.125H6.5ZM10.25 6.25C12.3211 6.25 14 7.92893 14 10C13.9999 12.071 12.321 13.75 10.25 13.75C8.17898 13.75 6.50008 12.071 6.5 10C6.5 7.92893 8.17893 6.25 10.25 6.25ZM10.25 7.5C8.86929 7.5 7.75 8.61929 7.75 10C7.75008 11.3806 8.86934 12.5 10.25 12.5C11.6307 12.5 12.7499 11.3806 12.75 10C12.75 8.61929 11.6307 7.5 10.25 7.5ZM14.3125 5C14.8303 5 15.25 5.41973 15.25 5.9375C15.25 6.45527 14.8303 6.875 14.3125 6.875C13.7947 6.875 13.375 6.45527 13.375 5.9375C13.375 5.41973 13.7947 5 14.3125 5Z" fill="#1A1A1A"/>
</g>
<defs>
<clipPath id="clip0_1411_5656">
<rect width="20" height="20" fill="white" transform="translate(0.25)"/>
</clipPath>
</defs>
</svg>
