<svg width="20" height="20" viewBox="0 0 20 20" fill="none" xmlns="http://www.w3.org/2000/svg">
<g clip-path="url(#clip0_1385_5693)">
<path d="M13.75 1.875C16.1662 1.875 18.125 3.83379 18.125 6.25V13.75C18.125 16.1662 16.1662 18.125 13.75 18.125H6.25C3.83375 18.125 1.875 16.1662 1.875 13.75V6.25C1.87504 3.83379 3.83378 1.875 6.25 1.875H13.75ZM6.25 3.125C4.52414 3.125 3.12504 4.52415 3.125 6.25V13.75C3.125 15.4759 4.52411 16.875 6.25 16.875H13.75C15.4759 16.875 16.875 15.4759 16.875 13.75V6.25C16.875 4.52415 15.4759 3.125 13.75 3.125H6.25ZM10 6.25C12.0711 6.25 13.75 7.92893 13.75 10C13.7499 12.071 12.071 13.75 10 13.75C7.92898 13.75 6.25008 12.071 6.25 10C6.25 7.92893 7.92893 6.25 10 6.25ZM10 7.5C8.61929 7.5 7.5 8.61929 7.5 10C7.50008 11.3806 8.61934 12.5 10 12.5C11.3807 12.5 12.4999 11.3806 12.5 10C12.5 8.61929 11.3807 7.5 10 7.5ZM14.0625 5C14.5802 5 15 5.41977 15 5.9375C15 6.45527 14.5803 6.875 14.0625 6.875C13.5447 6.875 13.125 6.45527 13.125 5.9375C13.125 5.41977 13.5448 5 14.0625 5Z" fill="white"/>
</g>
<defs>
<clipPath id="clip0_1385_5693">
<rect width="20" height="20" fill="white"/>
</clipPath>
</defs>
</svg>
