<svg width="20" height="20" viewBox="0 0 20 20" fill="none" xmlns="http://www.w3.org/2000/svg">
<g clip-path="url(#clip0_1385_5699)">
<path d="M16.875 2.5H3.125C2.77982 2.5 2.5 2.77982 2.5 3.125V16.875C2.5 17.2202 2.77982 17.5 3.125 17.5H16.875C17.2202 17.5 17.5 17.2202 17.5 16.875V3.125C17.5 2.77982 17.2202 2.5 16.875 2.5Z" stroke="white" stroke-width="1.25" stroke-linecap="round" stroke-linejoin="round"/>
<path d="M9.375 8.75061V13.7506" stroke="white" stroke-width="1.25" stroke-linecap="round" stroke-linejoin="round"/>
<path d="M6.875 8.75061V13.7506" stroke="white" stroke-width="1.25" stroke-linecap="round" stroke-linejoin="round"/>
<path d="M9.375 10.9381C9.375 10.3579 9.60547 9.80155 10.0157 9.39131C10.4259 8.98108 10.9823 8.75061 11.5625 8.75061C12.1427 8.75061 12.6991 8.98108 13.1093 9.39131C13.5195 9.80155 13.75 10.3579 13.75 10.9381V13.7506" stroke="white" stroke-width="1.25" stroke-linecap="round" stroke-linejoin="round"/>
<path d="M6.875 7.5C7.39277 7.5 7.8125 7.08027 7.8125 6.5625C7.8125 6.04473 7.39277 5.625 6.875 5.625C6.35723 5.625 5.9375 6.04473 5.9375 6.5625C5.9375 7.08027 6.35723 7.5 6.875 7.5Z" fill="white"/>
</g>
<defs>
<clipPath id="clip0_1385_5699">
<rect width="20" height="20" fill="white"/>
</clipPath>
</defs>
</svg>
