<svg width="21" height="20" viewBox="0 0 21 20" fill="none" xmlns="http://www.w3.org/2000/svg">
<g clip-path="url(#clip0_1411_5663)">
<path d="M17.125 1.875C17.8154 1.875 18.375 2.43464 18.375 3.125V16.875C18.375 17.5654 17.8154 18.125 17.125 18.125H3.375C2.68464 18.125 2.125 17.5654 2.125 16.875V3.125C2.125 2.43464 2.68464 1.875 3.375 1.875H17.125ZM3.375 16.875H17.125V3.125H3.375V16.875ZM7.125 8.125C7.47008 8.125 7.74984 8.40496 7.75 8.75V13.75C7.75 14.0952 7.47018 14.375 7.125 14.375C6.77982 14.375 6.5 14.0952 6.5 13.75V8.75C6.50016 8.40496 6.77992 8.125 7.125 8.125ZM11.8125 8.125C12.5583 8.125 13.2733 8.42187 13.8008 8.94922C14.3282 9.47659 14.6249 10.1917 14.625 10.9375V13.75C14.625 14.0952 14.3452 14.375 14 14.375C13.6548 14.375 13.375 14.0952 13.375 13.75V10.9375C13.3749 10.5232 13.2099 10.126 12.917 9.83301C12.624 9.54008 12.2268 9.375 11.8125 9.375C11.3982 9.375 11.001 9.54008 10.708 9.83301C10.4151 10.126 10.2501 10.5232 10.25 10.9375V13.75C10.25 14.0952 9.97018 14.375 9.625 14.375C9.27982 14.375 9 14.0952 9 13.75V8.75C9.00016 8.40496 9.27992 8.125 9.625 8.125C9.92266 8.125 10.1705 8.33367 10.2334 8.6123C10.6961 8.29789 11.245 8.125 11.8125 8.125ZM7.125 5.625C7.64267 5.625 8.06234 6.04487 8.0625 6.5625C8.0625 7.08027 7.64277 7.5 7.125 7.5C6.60723 7.5 6.1875 7.08027 6.1875 6.5625C6.18766 6.04487 6.60733 5.625 7.125 5.625Z" fill="#1A1A1A"/>
</g>
<defs>
<clipPath id="clip0_1411_5663">
<rect width="20" height="20" fill="white" transform="translate(0.25)"/>
</clipPath>
</defs>
</svg>
