<svg width="16" height="16" viewBox="0 0 16 16" fill="none" xmlns="http://www.w3.org/2000/svg">
<g clip-path="url(#clip0_1291_12499)">
<path d="M4.56055 2.00671C4.77502 1.98124 4.9927 2.02655 5.17969 2.13464C5.36412 2.24137 5.50936 2.4044 5.59473 2.59949L6.91602 5.54871L6.91895 5.55652L6.95996 5.67273C6.99405 5.7907 7.00683 5.91493 6.99609 6.03796C6.98165 6.2019 6.92698 6.36018 6.83691 6.49792C6.82603 6.51456 6.81357 6.53056 6.80078 6.54578L5.50195 8.08875C5.96913 9.03922 6.97265 10.0316 7.92871 10.496L9.4502 9.20203C9.46503 9.18943 9.48087 9.17765 9.49707 9.16687C9.63552 9.07478 9.79533 9.01884 9.96094 9.00378C10.0851 8.99251 10.21 9.00453 10.3291 9.03894L10.4463 9.08093L10.4531 9.08386L13.4004 10.4042H13.3994C13.595 10.4895 13.7583 10.6354 13.8652 10.8202C13.9733 11.007 14.0185 11.224 13.9932 11.4384L13.9922 11.4462C13.879 12.2918 13.4616 13.0681 12.8193 13.6298C12.2575 14.1209 11.5562 14.4187 10.8184 14.4852L10.5 14.4999C8.11305 14.4999 5.82357 13.551 4.13574 11.8632C2.55378 10.2809 1.62114 8.17029 1.51074 5.94617L1.5 5.49988C1.49946 4.64673 1.80852 3.82181 2.37012 3.17957C2.9318 2.53733 3.70804 2.12085 4.55371 2.00769L4.56055 2.00671ZM4.67871 2.99988C4.07627 3.08235 3.5235 3.37997 3.12305 3.83777C2.72104 4.29751 2.49969 4.8882 2.5 5.4989V5.49988C2.50007 7.62127 3.34287 9.65595 4.84277 11.1561C6.34306 12.6564 8.37827 13.4999 10.5 13.4999C11.1108 13.5003 11.7013 13.2788 12.1611 12.8768C12.6192 12.4762 12.9177 11.923 13 11.3202L12.9922 11.3173L10.0537 10.0009L8.53418 11.2948C8.52029 11.3066 8.50534 11.3178 8.49023 11.328C8.34688 11.4248 8.18029 11.483 8.00781 11.496C7.83531 11.509 7.66212 11.4764 7.50586 11.4022L7.50293 11.4012C6.34212 10.8412 5.1663 9.67951 4.59961 8.51941L4.59766 8.51648C4.52331 8.36131 4.49013 8.18911 4.50195 8.01746L4.51953 7.88953C4.54487 7.76382 4.59473 7.64357 4.66602 7.53601L4.7002 7.49011L5.99707 5.94617L4.68262 3.00769L4.67871 2.99988ZM9.12891 4.51648C10.3341 4.83893 11.1609 5.66583 11.4834 6.87097C11.5545 7.1376 11.3955 7.41193 11.1289 7.48328C10.8623 7.55438 10.5879 7.39541 10.5166 7.12878C10.2865 6.26938 9.73051 5.71334 8.87109 5.48328C8.60448 5.41193 8.4455 5.1376 8.5166 4.87097C8.58797 4.6044 8.86231 4.44539 9.12891 4.51648ZM9.62695 2.51648C10.5535 2.76046 11.3987 3.24624 12.0762 3.92371C12.7536 4.60117 13.2394 5.44643 13.4834 6.37292C13.5535 6.63985 13.3939 6.91297 13.127 6.98328C12.86 7.05338 12.5869 6.89376 12.5166 6.62683C12.3177 5.87163 11.9214 5.18297 11.3691 4.63074C10.8169 4.07851 10.1283 3.68221 9.37305 3.48328C9.10613 3.41297 8.9465 3.13985 9.0166 2.87292C9.08693 2.60605 9.36005 2.44639 9.62695 2.51648Z" fill="#1A1A1A"/>
</g>
<defs>
<clipPath id="clip0_1291_12499">
<rect width="16" height="16" fill="white"/>
</clipPath>
</defs>
</svg>
