<svg width="20" height="20" viewBox="0 0 20 20" fill="none" xmlns="http://www.w3.org/2000/svg">
<g clip-path="url(#clip0_1411_5639)">
<path d="M13.75 1.25C15.4759 1.25 16.875 2.64911 16.875 4.375C16.875 6.10089 15.4759 7.5 13.75 7.5C12.8724 7.5 12.0803 7.13722 11.5127 6.55469L7.91309 8.86914C8.04935 9.21992 8.125 9.60106 8.125 10C8.125 10.3986 8.04915 10.7793 7.91309 11.1299L11.5127 13.4443C12.0803 12.8621 12.8726 12.5 13.75 12.5C15.4759 12.5 16.875 13.8991 16.875 15.625C16.875 17.3509 15.4759 18.75 13.75 18.75C12.0241 18.75 10.625 17.3509 10.625 15.625C10.625 15.2262 10.6997 14.8448 10.8359 14.4941L7.23633 12.1797C6.66873 12.7619 5.87736 13.125 5 13.125C3.27411 13.125 1.875 11.7259 1.875 10C1.875 8.27411 3.27411 6.875 5 6.875C5.87711 6.875 6.66877 7.23738 7.23633 7.81934L10.8359 5.50488C10.7 5.15443 10.625 4.7735 10.625 4.375C10.625 2.64911 12.0241 1.25 13.75 1.25ZM13.75 13.75C12.7145 13.75 11.875 14.5895 11.875 15.625C11.875 16.6605 12.7145 17.5 13.75 17.5C14.7855 17.5 15.625 16.6605 15.625 15.625C15.625 14.5895 14.7855 13.75 13.75 13.75ZM5 8.125C3.96447 8.125 3.125 8.96447 3.125 10C3.125 11.0355 3.96447 11.875 5 11.875C6.03553 11.875 6.875 11.0355 6.875 10C6.875 8.96447 6.03553 8.125 5 8.125ZM13.75 2.5C12.7145 2.5 11.875 3.33947 11.875 4.375C11.875 5.41053 12.7145 6.25 13.75 6.25C14.7855 6.25 15.625 5.41053 15.625 4.375C15.625 3.33947 14.7855 2.5 13.75 2.5Z" fill="#1A1A1A"/>
</g>
<defs>
<clipPath id="clip0_1411_5639">
<rect width="20" height="20" fill="white"/>
</clipPath>
</defs>
</svg>
