<svg width="90" height="37" viewBox="0 0 90 37" fill="none" xmlns="http://www.w3.org/2000/svg">
<g clip-path="url(#clip0_1535_9976)">
<path d="M89.5254 1.44167H59.357V25.8191H89.5254V1.44167Z" fill="#F09EB9"/>
<path d="M84.0428 24.5111H84.0992C86.3854 24.5111 88.2456 22.6509 88.2456 20.3647V18.3752C88.2456 15.1548 85.6261 12.5354 82.4057 12.5354H82.3609V15.2725H82.4057C84.1166 15.2725 85.5084 16.6643 85.5084 18.3752V20.3647C85.5084 21.1414 84.8767 21.7739 84.0992 21.7739H84.0428C83.2661 21.7739 82.6336 21.1422 82.6336 20.3647V17.9417H79.8965V20.3647C79.8965 22.6509 81.7566 24.5111 84.0428 24.5111Z" fill="white"/>
<path d="M64.8405 24.5111C67.1267 24.5111 68.9868 22.6509 68.9868 20.3647V12.4674H66.2496V20.3647C66.2496 21.1414 65.618 21.7739 64.8405 21.7739H64.7841C64.0074 21.7739 63.3749 21.1422 63.3749 20.3647V2.75057H60.6377V20.3655C60.6377 22.6517 62.4979 24.5119 64.7841 24.5119H64.8405V24.5111Z" fill="white"/>
<path d="M73.0038 16.6137C73.0038 15.837 73.6355 15.2046 74.413 15.2046H74.4694C75.2461 15.2046 75.8786 15.8362 75.8786 16.6137V24.5111H78.6158V16.6137C78.6158 14.3275 76.7556 12.4674 74.4694 12.4674H74.413C72.1268 12.4674 70.2667 14.3275 70.2667 16.6137V24.5111H73.0038V16.6137Z" fill="white"/>
<path d="M9.6389 2.75057L9.62979 24.5392H12.3669L12.3761 16.5458C12.3761 15.7691 13.0077 15.1366 13.7853 15.1366H13.8416C14.6183 15.1366 15.2508 15.7682 15.2508 16.5458L15.2417 24.5392H17.9789L17.988 16.5458C17.988 14.2596 16.1278 12.3994 13.8416 12.3994H13.7853C13.2912 12.3994 12.8162 12.4865 12.3761 12.6456V2.75057H9.6389Z" fill="white"/>
<path d="M2.87393 0.605275V0.5H0.136775V0.605275C0.136775 3.3731 2.40807 5.56399 5.1759 5.56399H5.61109V9.10356C5.61109 10.8079 4.2193 12.1938 2.50837 12.1938H2.46361V15.0678H2.50837C4.2193 15.0678 5.61109 16.4032 5.61109 18.1141V20.3092C5.61109 21.0859 4.97944 21.7739 4.20189 21.7739H4.14552C3.36881 21.7739 2.73633 21.0859 2.73633 20.3092V17.9417H0V20.3092C0 22.5954 1.86014 24.5119 4.14635 24.5119H4.20272C6.47567 24.5119 8.32586 22.5962 8.34825 20.4061H8.34908V18.115C8.34908 16.3004 7.51682 14.6765 6.21456 13.6047C7.51682 12.5354 8.34908 10.9148 8.34908 9.10356V2.82683H5.17672C3.9184 2.82683 2.87476 1.8636 2.87476 0.605275H2.87393Z" fill="white"/>
<path d="M24.879 24.5392H27.6161V16.6826C27.6161 15.9058 28.2478 15.2734 29.0253 15.2734H29.0817C29.8584 15.2734 30.4909 15.905 30.4909 16.6826V24.5119H33.228V16.6826C33.228 14.3963 31.3679 12.5362 29.0817 12.5362H29.0253C27.9933 12.5362 27.0499 12.9159 26.323 13.5417C25.5794 12.8346 24.5747 12.3994 23.4698 12.3994H23.4134C21.1272 12.3994 19.267 14.2596 19.267 16.5458V24.5392H22.0042V16.5458C22.0042 15.7691 22.6358 15.1366 23.4134 15.1366H23.4698C24.2465 15.1366 24.879 15.7682 24.879 16.5458V24.5392Z" fill="white"/>
<path d="M53.886 12.4674H53.8297C51.5434 12.4674 49.6833 14.3275 49.6833 16.6137V19.0367H52.4205V16.6137C52.4205 15.837 53.0521 15.2046 53.8297 15.2046H53.886C54.6627 15.2046 55.2952 15.8362 55.2952 16.6137V28.2794C55.2952 29.9903 53.9034 31.3821 52.1925 31.3821H49.6841V34.1193H52.1925C55.4129 34.1193 58.0324 31.4998 58.0324 28.2794V16.6137C58.0324 14.3275 56.1722 12.4674 53.886 12.4674Z" fill="white"/>
<path d="M48.4034 20.5131V16.4488H48.4026C48.3852 14.7072 47.2238 13.1015 45.6008 12.5321C45.5966 12.5445 45.6049 12.5188 45.6008 12.5321C45.1979 12.4019 44.7685 12.3306 44.3225 12.3306H44.2662C43.9678 12.3306 43.6768 12.3638 43.3958 12.4235C42.6357 12.5776 41.9493 12.9465 41.3997 13.4613C40.6752 12.8421 39.736 12.4666 38.7106 12.4666H38.6543C36.3647 12.4666 34.5079 14.3226 34.5079 16.6129V20.3647C34.5079 22.6542 36.3639 24.5111 38.6543 24.5111H38.7106C41.0002 24.5111 42.857 22.6551 42.857 20.3647V16.4761C42.857 15.8113 43.3187 15.2551 43.9379 15.1067C44.0233 15.0893 44.1103 15.0794 44.2007 15.0794H44.2571C45.0338 15.0794 45.6663 15.7674 45.6663 16.5441V20.5122C45.6663 22.2232 44.2745 23.5586 42.5635 23.5586H42.5188V26.4325H42.5635C44.2745 26.4325 45.6663 27.8185 45.6663 29.5228V31.4352H39.7659C36.998 31.4352 34.7267 33.6261 34.7267 36.3939V36.4992H37.4639V36.3939C37.4639 35.1356 38.5075 34.1723 39.7659 34.1723H48.4034V29.5228C48.4034 27.7124 47.5712 26.0918 46.2689 25.0217C47.5712 23.9499 48.4034 22.326 48.4034 20.5114V20.5131ZM40.1198 20.3655C40.1198 21.1422 39.4882 21.7747 38.7106 21.7747H38.6543C37.8775 21.7747 37.2451 21.1431 37.2451 20.3655V16.6137C37.2451 15.837 37.8767 15.2046 38.6543 15.2046H38.7106C39.4873 15.2046 40.1198 15.8362 40.1198 16.6137V20.3655Z" fill="white"/>
</g>
<defs>
<clipPath id="clip0_1535_9976">
<rect width="89.5254" height="36" fill="white" transform="translate(0 0.5)"/>
</clipPath>
</defs>
</svg>
