<svg width="20" height="20" viewBox="0 0 20 20" fill="none" xmlns="http://www.w3.org/2000/svg">
<g clip-path="url(#clip0_1385_5706)">
<path d="M12.5 10L8.75 7.5V12.5L12.5 10Z" stroke="white" stroke-width="1.25" stroke-linecap="round" stroke-linejoin="round"/>
<path d="M1.875 10.0007C1.875 12.3374 2.11484 13.7077 2.29766 14.4124C2.346 14.6041 2.43911 14.7816 2.56935 14.9303C2.69959 15.079 2.86325 15.1947 3.04688 15.2679C5.66563 16.278 10 16.2507 10 16.2507C10 16.2507 14.3344 16.278 16.9531 15.2679C17.1373 15.1951 17.3016 15.0796 17.4324 14.9308C17.5632 14.7821 17.6568 14.6044 17.7055 14.4124C17.8883 13.7093 18.1281 12.3374 18.1281 10.0007C18.1281 7.66396 17.8883 6.29365 17.7055 5.58896C17.6574 5.39625 17.564 5.21777 17.4332 5.06832C17.3024 4.91887 17.1378 4.80275 16.9531 4.72959C14.3344 3.72334 10 3.75068 10 3.75068C10 3.75068 5.66563 3.72334 3.04688 4.7335C2.86221 4.80666 2.69765 4.92278 2.56681 5.07223C2.43597 5.22168 2.34264 5.40016 2.29453 5.59287C2.11484 6.29287 1.875 7.66396 1.875 10.0007Z" stroke="white" stroke-width="1.25" stroke-linecap="round" stroke-linejoin="round"/>
</g>
<defs>
<clipPath id="clip0_1385_5706">
<rect width="20" height="20" fill="white"/>
</clipPath>
</defs>
</svg>
